HIERARCHY
ROOT root
{
	OFFSET	0	13.1	24.9
	CHANNELS 6  Xposition Yposition Zposition Xrotation Yrotation Zrotation
	JOINT spine_1
	{
		OFFSET	0	9.99999	0
		CHANNELS 3  Xrotation Yrotation Zrotation
		JOINT spine_2
		{
			OFFSET	0	112	-10
			CHANNELS 3  Xrotation Yrotation Zrotation
			JOINT spine_3
			{
				OFFSET	0	206.5	19.3
				CHANNELS 3  Xrotation Yrotation Zrotation
				JOINT spine_4
				{
					OFFSET	0	110.4	14.6
					CHANNELS 3  Xrotation Yrotation Zrotation
					JOINT neck_1
					{
						OFFSET	0	71.8	-50.3
						CHANNELS 3  Xrotation Yrotation Zrotation
						JOINT neck_2
						{
							OFFSET	0	86.2	-25.8
							CHANNELS 3  Xrotation Yrotation Zrotation
							JOINT head_ee
							{
								OFFSET	0	179.8	-8.7
								CHANNELS 3  Xrotation Yrotation Zrotation
								End Site
								{
									OFFSET	1	0	0
								}
							}
						}
					}
					JOINT left_clavicle
					{
						OFFSET	-43.2	22.4	-70.8
						CHANNELS 3  Xrotation Yrotation Zrotation
						JOINT left_shoulder
						{
							OFFSET	-93.9	-5.79999	48.7
							CHANNELS 3  Xrotation Yrotation Zrotation
							JOINT left_elbow
							{
								OFFSET	-291.4	-30.8	15.2
								CHANNELS 3  Xrotation Yrotation Zrotation
								JOINT left_lowarm_twist
								{
									OFFSET	-110.7	-3.89999	13.6
									CHANNELS 3  Xrotation Yrotation Zrotation
									JOINT left_hand
									{
										OFFSET	-110.7	-3.89999	13.6
										CHANNELS 3  Xrotation Yrotation Zrotation
										JOINT left_ee
										{
											OFFSET	-80.8	-5.10001	12.1
											CHANNELS 3  Xrotation Yrotation Zrotation
											End Site
											{
												OFFSET	1	0	0
											}
										}
									}
								}
							}
						}
					}
					JOINT right_clavicle
					{
						OFFSET	43.2	22.4	-70.8
						CHANNELS 3  Xrotation Yrotation Zrotation
						JOINT right_shoulder
						{
							OFFSET	93.9	-5.79999	48.7
							CHANNELS 3  Xrotation Yrotation Zrotation
							JOINT right_elbow
							{
								OFFSET	291.4	-30.8	15.2
								CHANNELS 3  Xrotation Yrotation Zrotation
								JOINT right_lowarm_twist
								{
									OFFSET	110.7	-3.89999	13.6
									CHANNELS 3  Xrotation Yrotation Zrotation
									JOINT right_hand
									{
										OFFSET	110.7	-3.89999	13.6
										CHANNELS 3  Xrotation Yrotation Zrotation
										JOINT right_ee
										{
											OFFSET	80.8	-5.10001	12.1
											CHANNELS 3  Xrotation Yrotation Zrotation
											End Site
											{
												OFFSET	1	0	0
											}
										}
									}
								}
							}
						}
					}
				}
			}
		}
	}
	JOINT left_hip
	{
		OFFSET	-82.8	-127.5	0.300001
		CHANNELS 3  Xrotation Yrotation Zrotation
		JOINT left_knee
		{
			OFFSET	-28.2	-396.7	2.2
			CHANNELS 3  Xrotation Yrotation Zrotation
			JOINT left_ankle
			{
				OFFSET	-11.7	-411.3	35.4
				CHANNELS 3  Xrotation Yrotation Zrotation
				JOINT left_toes
				{
					OFFSET	0	-60	-88.6
					CHANNELS 3  Xrotation Yrotation Zrotation
					JOINT left_foot_ee
					{
						OFFSET	-22.5	-16.5	-42.2
						CHANNELS 3  Xrotation Yrotation Zrotation
						End Site
						{
							OFFSET	1	0	0
						}
					}
				}
			}
		}
	}
	JOINT right_hip
	{
		OFFSET	82.8	-127.5	0.300001
		CHANNELS 3  Xrotation Yrotation Zrotation
		JOINT right_knee
		{
			OFFSET	28.2	-396.7	2.2
			CHANNELS 3  Xrotation Yrotation Zrotation
			JOINT right_ankle
			{
				OFFSET	11.7	-411.3	35.4
				CHANNELS 3  Xrotation Yrotation Zrotation
				JOINT right_toes
				{
					OFFSET	0	-60	-88.6
					CHANNELS 3  Xrotation Yrotation Zrotation
					JOINT right_foot_ee
					{
						OFFSET	22.5	-16.5	-42.2
						CHANNELS 3  Xrotation Yrotation Zrotation
						End Site
						{
							OFFSET	1	0	0
						}
					}
				}
			}
		}
	}
}
MOTION
Frames: 5
Frame Time: 0.02
2628.6 674.748 -583.038 -156.034 -84.4918 -153.034 1.52599 -0.434283 -2.8014 1.53032 -0.255216 -2.82333 1.54338 0.26808 -2.82214 1.53231 -0.180805 -2.82907 -13.405 11.3628 9.81422 -13.295 15.5762 12.761 -0.0 0.0 -0.0 9.97948 13.2609 18.4296 14.1308 -27.4174 65.9712 2.78334 -54.0375 1.41953 -11.071 -0.518922 1.31471 -2.53203 12.6337 -10.8214 -0.0 0.0 -0.0 7.9172 -11.8049 -14.9092 -28.235 1.99853 -57.5112 0.179784 5.08945 -0.00799018 -71.0491 6.67998 -5.31044 -7.77653 -18.4825 44.3762 0.0 0.0 0.0 -10.6107 7.38555 -3.31784 -2.58801 0.097873 0.385081 39.7211 17.8737 -4.95718 -17.8285 0.0 0.0 -0.0 0.0 -0.0 28.8738 -6.92859 -1.89707 1.22939 0.0525737 0.181324 -17.2661 26.4929 -3.17358 19.8766 -0.0 -0.0 0.0 0.0 0.0 
2648.75 674.828 -579.409 -159.403 -85.3169 -156.384 1.38033 -0.327592 -2.86555 1.38489 -0.144663 -2.88057 1.39273 0.394937 -2.85705 1.38135 -0.0610435 -2.88355 -12.7083 11.4429 9.37407 -12.6119 15.849 12.2768 -0.0 0.0 -0.0 9.80674 13.1921 18.1294 12.3405 -27.9075 66.3569 2.79987 -54.1985 1.43293 -10.654 -0.494819 1.26713 -2.37058 12.0897 -10.0612 -0.0 0.0 -0.0 8.31626 -12.6066 -15.55 -27.818 1.88835 -57.0866 0.189435 5.36111 -0.00886908 -70.8186 6.65053 -5.30885 -7.94365 -19.0979 45.1816 0.0 0.0 0.0 -11.4514 6.98676 -3.81511 -3.42349 0.125739 0.510274 40.2422 17.4588 -4.99662 -17.2212 0.0 0.0 -0.0 0.0 -0.0 27.9374 -7.12359 -1.52425 -1.07721 -0.0428534 -0.159755 -17.3652 27.3929 -3.22819 20.4486 -0.0 -0.0 0.0 0.0 0.0 
2668.09 673.667 -571.294 -159.959 -86.7361 -156.789 1.39639 -0.25068 -2.84773 1.4009 -0.0690388 -2.8579 1.40482 0.464497 -2.82077 1.39371 0.0133684 -2.8587 -13.9125 11.3717 9.66728 -13.8279 15.7983 12.6984 -0.0 0.0 -0.0 9.6363 13.2796 17.8147 11.5741 -28.0458 67.3227 2.83395 -54.5265 1.46063 -9.89197 -0.451661 1.17971 -2.11509 12.1189 -8.40829 -0.0 0.0 -0.0 8.62052 -12.6464 -16.0824 -26.4709 1.43653 -57.4561 0.193028 5.46217 -0.00920797 -69.3385 6.46163 -5.29583 -8.361 -21.4895 46.0774 0.0 0.0 0.0 -11.9869 6.7308 -5.65074 -4.88857 0.170183 0.730721 39.0718 17.3637 -4.88753 -16.5559 0.0 0.0 -0.0 0.0 -0.0 27.0382 -7.69679 -1.26067 -3.07952 -0.114488 -0.458684 -19.3134 25.1406 -3.49552 20.9657 -0.0 -0.0 0.0 0.0 0.0 
2691.97 674.342 -566.154 -176.272 -85.7463 -173.143 1.35472 -0.062259 -2.90245 1.3594 0.122479 -2.90053 1.35356 0.663374 -2.82637 1.34247 0.208873 -2.8956 -14.6229 11.7406 9.95954 -14.5573 16.4879 13.1962 -0.0 0.0 -0.0 9.39983 14.6396 17.2335 9.29625 -27.6234 68.1403 2.82033 -54.396 1.44954 -9.16877 -0.411787 1.09624 -1.83293 12.267 -6.53733 -0.0 0.0 -0.0 8.91829 -12.3374 -16.6398 -25.5136 1.11899 -57.1439 0.187548 5.30802 -0.00869367 -67.5865 6.23847 -5.27407 -8.80071 -23.9621 46.8236 0.0 0.0 0.0 -12.3969 6.51113 -5.13113 -7.98074 0.245392 1.19923 34.8489 18.3158 -4.49332 -16.4113 0.0 0.0 -0.0 0.0 -0.0 25.9172 -8.70145 -1.90838 -5.83172 -0.195803 -0.873195 -17.1861 23.0011 -3.03383 22.9708 -0.0 -0.0 0.0 0.0 0.0 
2717.14 677.161 -559.499 166.889 -86.6252 169.395 1.26997 -0.102087 -2.69346 1.274 0.0694491 -2.6945 1.27117 0.576377 -2.6331 1.26153 0.153453 -2.69103 -16.1282 11.3963 11.1331 -16.0003 15.483 14.3931 -0.0 0.0 -0.0 9.0054 15.7752 16.4197 6.7465 -27.6816 68.1139 2.74056 -53.615 1.385 -8.62502 -0.382504 1.03315 -1.41099 11.9608 -4.002 -0.0 0.0 -0.0 9.29942 -12.1385 -17.3418 -24.5037 1.00899 -57.4849 0.198592 5.61863 -0.00974509 -66.9579 6.15855 -5.2646 -9.33078 -25.8057 49.0826 0.0 0.0 0.0 -11.8895 6.60045 -5.06608 -13.1412 0.314292 1.98781 35.4478 21.5715 -4.62053 -15.4014 0.0 0.0 -0.0 0.0 -0.0 23.9263 -8.83015 -1.23033 -9.08093 -0.266035 -1.36679 -12.01 19.4309 -2.03583 24.4305 -0.0 -0.0 0.0 0.0 0.0 
